# Blender 4.4.0
# www.blender.org
mtllib ChairOld.mtl
# ChairOld
v 2.177350 0.681771 -3.107585
v 2.206146 0.681771 -3.134060
v 2.206146 0.753718 -3.134060
v 2.177350 0.753718 -3.107585
v 2.892598 0.681771 -3.134060
v 2.921394 0.681771 -3.107585
v 2.921394 0.753718 -3.107585
v 2.892598 0.753718 -3.134060
v 2.206146 0.681771 -2.449976
v 2.177350 0.681771 -2.476451
v 2.177350 0.753718 -2.476451
v 2.206146 0.753718 -2.449976
v 2.921394 0.681771 -2.476451
v 2.892598 0.681771 -2.449975
v 2.892598 0.753718 -2.449975
v 2.921394 0.753718 -2.476451
v 2.176777 0.100000 -2.530047
v 2.212961 0.735173 -2.554687
v 2.235984 0.100000 -2.530047
v 2.272168 0.735173 -2.554687
v 2.176777 0.100000 -2.470840
v 2.212961 0.735173 -2.495480
v 2.235984 0.100000 -2.470840
v 2.272168 0.735173 -2.495480
v 2.855344 0.103244 -2.500647
v 2.829647 0.735173 -2.554687
v 2.913094 0.103244 -2.500647
v 2.887398 0.735173 -2.554687
v 2.855344 0.103244 -2.441439
v 2.829647 0.735173 -2.495480
v 2.913094 0.103244 -2.441439
v 2.887398 0.735173 -2.495480
v 2.832329 0.414641 -2.529931
v 2.890079 0.422154 -2.529931
v 2.890079 0.422154 -2.470723
v 2.832329 0.414641 -2.470723
v 2.931346 0.100000 -3.066961
v 2.895163 0.735173 -3.042321
v 2.872139 0.100000 -3.066961
v 2.835956 0.735173 -3.042321
v 2.931347 0.100000 -3.126168
v 2.895163 0.735173 -3.101528
v 2.872139 0.100000 -3.126168
v 2.835956 0.735173 -3.101528
v 2.293445 0.103245 -3.066961
v 2.278476 0.735173 -3.042321
v 2.235695 0.103245 -3.066961
v 2.220726 0.735173 -3.042321
v 2.293445 0.103245 -3.126168
v 2.278476 0.735173 -3.101528
v 2.235695 0.103245 -3.126168
v 2.220726 0.735173 -3.101528
v 2.275795 0.414641 -3.054641
v 2.218044 0.422154 -3.054641
v 2.218044 0.422154 -3.113848
v 2.275795 0.414641 -3.113848
v 2.900223 0.736780 -3.044256
v 2.864040 1.604491 -3.019617
v 2.841016 0.736780 -3.044256
v 2.804832 1.633324 -3.019617
v 2.900223 0.736780 -3.103464
v 2.864040 1.633324 -3.078824
v 2.841016 0.736780 -3.103464
v 2.804832 1.633324 -3.078824
v 2.262321 0.740024 -3.044256
v 2.247353 1.604704 -3.019617
v 2.204571 0.740024 -3.044256
v 2.189603 1.633324 -3.019617
v 2.262321 0.740024 -3.103464
v 2.247353 1.604704 -3.078824
v 2.204571 0.740024 -3.103464
v 2.189603 1.633324 -3.078824
v 2.244671 1.051421 -3.031937
v 2.186921 1.058934 -3.031937
v 2.186921 1.058934 -3.091144
v 2.244671 1.051421 -3.091144
v 2.897499 1.200456 -3.031937
v 2.844687 1.169648 -3.031937
v 2.844687 1.169648 -3.091144
v 2.897499 1.200456 -3.091144
v 2.834436 1.633324 -3.019617
v 2.864040 1.633324 -3.049221
v 2.228103 1.633324 -3.019617
v 2.208853 1.617714 -3.019617
v 2.208853 1.628394 -3.078824
v 2.228103 1.633324 -3.078824
v 2.153774 1.302808 -3.033330
v 2.151754 1.477407 -3.033330
v 2.910339 1.314404 -3.033330
v 2.153774 1.302808 -2.999225
v 2.151754 1.477407 -2.999225
v 2.910339 1.314404 -2.999225
v 2.129726 1.136193 -3.033330
v 2.940729 1.086687 -3.033330
v 2.920323 1.259714 -3.033330
v 2.129726 1.136193 -2.999225
v 2.940729 1.086687 -2.999225
v 2.920323 1.259714 -2.999225
v 2.555231 1.178884 -3.033330
v 2.735362 1.230816 -3.033330
v 2.751996 1.089772 -3.033330
v 2.572882 1.029215 -3.033330
v 2.735362 1.230816 -2.999225
v 2.555231 1.178884 -2.999225
v 2.572882 1.029215 -2.999225
v 2.751996 1.089772 -2.999225
v 2.390302 1.467625 -3.033330
v 2.515057 1.482625 -3.033330
v 2.517069 1.308726 -3.033330
v 2.392011 1.319897 -3.033330
v 2.515057 1.482625 -2.999225
v 2.390302 1.467625 -2.999225
v 2.392011 1.319897 -2.999225
v 2.517069 1.308726 -2.999225
v 2.875007 1.488470 -3.033330
v 2.908636 1.461586 -3.033330
v 2.908636 1.461586 -2.999225
v 2.875007 1.488470 -2.999225
v 2.183501 0.968379 -3.033330
v 2.145602 1.001575 -3.033330
v 2.145602 1.001575 -2.999225
v 2.183501 0.968379 -2.999225
vn -0.1782 -0.9271 -0.3297
vn 0.1049 -0.9229 -0.3704
vn 0.3279 -0.9229 -0.2017
vn 0.3633 -0.9271 0.0919
vn 0.1782 -0.9271 0.3297
vn -0.1048 -0.9229 0.3704
vn -0.3279 -0.9229 0.2017
vn -0.3633 -0.9271 -0.0919
vn -0.0000 0.3850 0.9229
vn -0.3850 -0.0001 0.9229
vn 0.0001 -0.3850 0.9229
vn 0.3850 -0.0000 0.9229
vn -0.1782 0.9271 0.3297
vn 0.1049 0.9229 0.3704
vn 0.3279 0.9229 0.2017
vn 0.3633 0.9271 -0.0919
vn 0.1782 0.9271 -0.3297
vn -0.1048 0.9229 -0.3704
vn -0.3279 0.9229 -0.2017
vn -0.3633 0.9271 0.0919
vn -0.9271 0.3748 -0.0000
vn -0.9271 -0.0000 -0.3748
vn -0.9271 -0.3748 -0.0000
vn -0.9271 -0.0000 0.3748
vn 0.9271 0.3748 -0.0000
vn 0.9271 -0.0000 0.3748
vn 0.9271 -0.3748 -0.0000
vn 0.9271 -0.0000 -0.3748
vn -0.9034 -0.0000 -0.4288
vn -0.6275 0.3748 -0.6825
vn -0.3412 -0.0001 -0.9400
vn -0.6247 -0.3850 -0.6794
vn 0.9034 -0.0000 -0.4288
vn 0.6275 -0.3748 -0.6825
vn 0.3412 -0.0000 -0.9400
vn 0.6247 0.3850 -0.6794
vn 0.3412 -0.0000 0.9400
vn 0.6247 -0.3850 0.6794
vn 0.9034 -0.0000 0.4288
vn 0.6275 0.3748 0.6825
vn -0.9034 -0.0000 0.4288
vn -0.6275 -0.3748 0.6825
vn -0.3412 0.0001 0.9400
vn -0.6247 0.3850 0.6794
vn 0.0001 0.3850 -0.9229
vn 0.3850 -0.0000 -0.9229
vn -0.0000 -0.3850 -0.9229
vn -0.3850 0.0001 -0.9229
vn -0.0000 -0.0388 -0.9992
vn 0.9984 -0.0569 -0.0000
vn -0.0000 0.0388 0.9992
vn -0.9984 0.0569 -0.0000
vn -0.0000 -1.0000 -0.0000
vn 0.0060 -0.0921 -0.9957
vn 0.9974 0.0720 -0.0000
vn -0.0060 0.0921 0.9957
vn -0.9973 -0.0737 -0.0000
vn -1.0000 -0.0084 -0.0000
vn -0.0051 0.0779 0.9970
vn 1.0000 0.0086 -0.0000
vn 0.0051 -0.0779 -0.9970
vn -0.0000 -0.0388 0.9992
vn -0.9984 -0.0569 -0.0000
vn -0.0000 0.0388 -0.9992
vn 0.9984 0.0569 -0.0000
vn -0.0026 -0.0392 0.9992
vn -0.9985 -0.0553 -0.0000
vn 0.0026 0.0392 -0.9992
vn 0.9984 0.0566 -0.0000
vn 1.0000 -0.0084 -0.0000
vn 0.0025 0.0388 -0.9992
vn -1.0000 0.0086 -0.0000
vn -0.0025 -0.0388 0.9992
vn 0.0063 -0.0262 0.9996
vn 0.0060 -0.0284 0.9996
vn 0.0076 -0.0275 0.9996
vn -0.9999 0.0102 -0.0007
vn -1.0000 0.0085 -0.0000
vn -0.0076 0.0275 -0.9996
vn 1.0000 0.0059 -0.0000
vn 1.0000 0.0051 0.0017
vn 0.0025 0.0392 -0.9992
vn 1.0000 -0.0048 -0.0000
vn 0.0067 0.0215 -0.9997
vn -1.0000 0.0047 -0.0000
vn -0.0068 -0.0216 0.9997
vn 0.4692 0.8795 0.0793
vn 0.9968 0.0778 0.0189
vn 0.9969 0.0761 0.0182
vn -0.0074 0.0269 -0.9996
vn -0.9963 -0.0856 -0.0000
vn -0.9964 -0.0850 0.0017
vn 0.0005 -0.0279 0.9996
vn 0.0018 -0.0291 0.9996
vn 0.0020 -0.0268 0.9996
vn -0.0000 1.0000 -0.0000
vn 0.5722 0.5875 0.5722
vn 0.8298 0.5581 -0.0000
vn -0.4692 0.8795 0.0793
vn 0.9999 0.0116 -0.0000
vn -0.0000 -0.0000 1.0000
vn -0.9999 -0.0116 -0.0000
vn 0.0144 -0.9999 -0.0000
vn -0.0000 -0.0000 -1.0000
vn 0.9931 0.1171 -0.0000
vn -0.0163 -0.9999 -0.0000
vn -0.1544 0.9880 -0.0000
vn -0.0998 0.9950 -0.0000
vn -0.2770 0.9609 -0.0000
vn -0.9931 -0.1171 -0.0000
vn 0.3203 -0.9473 -0.0000
vn 0.1544 -0.9880 -0.0000
vn 0.0410 0.9992 -0.0000
vn -0.1194 0.9928 -0.0000
vn 0.0715 -0.9974 -0.0000
vn -0.0890 -0.9960 -0.0000
vn 0.6244 0.7811 -0.0000
vn -0.0162 0.9999 -0.0000
vn -0.6589 -0.7523 -0.0000
vt 0.013006 0.410711
vt 0.002776 0.394816
vt 0.002776 0.015895
vt 0.015781 0.002831
vt 0.323037 0.002831
vt 0.336043 0.015895
vt 0.336043 0.394816
vt 0.323037 0.410711
vt 0.154797 0.805786
vt 0.154797 0.426631
vt 0.190139 0.426631
vt 0.190139 0.805786
vt 0.659037 0.003688
vt 0.672041 0.019576
vt 0.672041 0.397943
vt 0.659037 0.413800
vt 0.349047 0.413433
vt 0.336043 0.397545
vt 0.336043 0.019177
vt 0.349047 0.006152
vt 0.259942 0.410711
vt 0.259942 0.759311
vt 0.224615 0.759311
vt 0.224615 0.410711
vt 0.300784 0.759315
vt 0.300784 0.410715
vt 0.336043 0.410711
vt 0.336043 0.759311
vt 0.190176 0.410711
vt 0.225518 0.410711
vt 0.225500 0.426607
vt 0.190158 0.426607
vt 0.225518 0.821676
vt 0.190175 0.821676
vt 0.190158 0.805762
vt 0.225500 0.805762
vt 0.190158 0.821676
vt 0.154815 0.821676
vt 0.154815 0.410711
vt 0.190158 0.410711
vt 0.850187 0.498796
vt 0.879225 0.496937
vt 0.879225 0.848318
vt 0.850187 0.850177
vt 0.969726 0.350179
vt 0.940664 0.348898
vt 0.940664 0.001887
vt 0.969726 0.003169
vt 0.882477 0.353239
vt 0.853440 0.351380
vt 0.853440 0.001887
vt 0.882477 0.003746
vt 0.894215 0.502536
vt 0.923277 0.501266
vt 0.923277 0.851615
vt 0.894215 0.852885
vt 0.835559 0.244931
vt 0.835559 0.435358
vt 0.582675 0.435358
vt 0.582675 0.244931
vt 0.672041 0.621728
vt 0.700536 0.618880
vt 0.705468 0.795376
vt 0.677123 0.794078
vt 0.794474 0.173125
vt 0.823453 0.175911
vt 0.824402 0.353251
vt 0.795423 0.350465
vt 0.295852 0.587207
vt 0.267356 0.584359
vt 0.272439 0.412010
vt 0.300784 0.410711
vt 0.819863 0.669987
vt 0.790885 0.672771
vt 0.792171 0.499721
vt 0.821150 0.496937
vt 0.936552 0.625785
vt 0.689891 0.625785
vt 0.689891 0.435358
vt 0.936552 0.435358
vt 0.821150 0.847517
vt 0.792171 0.850301
vt 0.300784 0.759997
vt 0.272439 0.761296
vt 0.795424 0.001887
vt 0.824402 0.004674
vt 0.677123 0.444790
vt 0.705468 0.446088
vt 0.821150 0.498795
vt 0.850187 0.496937
vt 0.850187 0.848356
vt 0.821150 0.850214
vt 0.882477 0.001887
vt 0.911540 0.003154
vt 0.911540 0.352800
vt 0.882477 0.351534
vt 0.853440 0.353277
vt 0.824402 0.351418
vt 0.824402 0.001887
vt 0.853440 0.003747
vt 0.879225 0.498202
vt 0.908287 0.496937
vt 0.908287 0.848576
vt 0.879225 0.849841
vt 0.437006 0.435358
vt 0.689891 0.435358
vt 0.689891 0.625785
vt 0.437006 0.625785
vt 0.733742 0.616979
vt 0.705468 0.621882
vt 0.710426 0.445544
vt 0.738787 0.444790
vt 0.923715 0.184979
vt 0.894653 0.183705
vt 0.894715 0.009103
vt 0.923777 0.010377
vt 0.732235 0.672642
vt 0.760508 0.677545
vt 0.765554 0.849733
vt 0.737193 0.848979
vt 0.966412 0.669331
vt 0.937350 0.670605
vt 0.937431 0.498210
vt 0.966493 0.496937
vt 0.145669 0.559573
vt 0.392330 0.559573
vt 0.392330 0.750000
vt 0.145669 0.750000
vt 0.966493 0.845984
vt 0.937431 0.847257
vt 0.737193 0.499823
vt 0.765554 0.500578
vt 0.923777 0.357886
vt 0.894715 0.356612
vt 0.738787 0.793947
vt 0.710426 0.794701
vt 0.593114 0.651448
vt 0.619645 0.667275
vt 0.630023 0.906099
vt 0.600962 0.907417
vt 0.125507 0.667448
vt 0.154580 0.668346
vt 0.154797 0.907368
vt 0.125723 0.906470
vt 0.784097 0.240142
vt 0.757566 0.255968
vt 0.765413 0.001887
vt 0.794474 0.003206
vt 0.096023 0.652653
vt 0.125096 0.651726
vt 0.125507 0.907421
vt 0.096434 0.908348
vt 0.028301 0.582860
vt 0.000000 0.587560
vt 0.005956 0.411262
vt 0.034320 0.410711
vt 0.094777 0.723524
vt 0.123850 0.724426
vt 0.125576 0.900905
vt 0.096502 0.900003
vt 0.637720 0.727674
vt 0.666021 0.732375
vt 0.672041 0.904524
vt 0.643676 0.903972
vt 0.063394 0.583093
vt 0.034320 0.583993
vt 0.036151 0.411611
vt 0.065224 0.410711
vt 0.064832 0.887941
vt 0.035759 0.888841
vt 0.643920 0.410480
vt 0.653333 0.413386
vt 0.662829 0.410847
vt 0.672041 0.426837
vt 0.096502 0.406382
vt 0.125576 0.407283
vt 0.034320 0.888399
vt 0.025109 0.904388
vt 0.015521 0.895951
vt 0.006199 0.904756
vt 0.917780 0.051936
vt 0.917780 0.244021
vt 0.835559 0.244931
vt 0.835559 0.054819
vt 0.096032 0.412761
vt 0.110569 0.412298
vt 0.125507 0.427716
vt 0.794474 0.496937
vt 0.765414 0.495619
vt 0.125723 0.410711
vt 0.154797 0.411609
vt 0.601532 0.427710
vt 0.615492 0.411138
vt 0.630022 0.410480
vt 0.835559 0.100380
vt 0.835559 0.195437
vt 0.582675 0.195437
vt 0.582675 0.005324
vt 0.709117 0.005324
vt 0.835559 0.000000
vt 0.835559 0.435358
vt 0.835559 0.244932
vt 0.962844 0.244931
vt 0.962844 0.435358
vt 1.000000 0.054819
vt 1.000000 0.244931
vt 0.291337 0.000000
vt 0.437006 0.000000
vt 0.437006 0.472747
vt 0.291337 0.472747
vt 0.540036 0.451197
vt 0.550966 0.466097
vt 0.550831 0.627593
vt 0.481446 0.627884
vt 0.481311 0.451443
vt 0.545609 0.683655
vt 0.550966 0.790590
vt 0.481302 0.790882
vt 0.486665 0.683902
vt 0.000000 0.000000
vt 0.145669 0.000000
vt 0.145669 0.560806
vt 0.000000 0.560806
vt 0.983247 0.714131
vt 0.983247 0.496937
vt 0.997169 0.496937
vt 0.997169 0.714131
vt 0.620495 0.614485
vt 0.620630 0.775982
vt 0.609700 0.790882
vt 0.550975 0.790636
vt 0.551110 0.614194
vt 0.621821 0.375578
vt 0.621821 0.457259
vt 0.554262 0.454402
vt 0.566750 0.373249
vt 0.291337 0.559573
vt 0.331737 0.591265
vt 0.322617 0.404959
vt 0.375179 0.402737
vt 0.390176 0.416839
vt 0.390176 0.588794
vt 0.966493 0.601057
vt 0.983247 0.601057
vt 0.738976 0.547795
vt 0.738977 0.444818
vt 0.755728 0.444790
vt 0.755728 0.547768
vt 0.738976 0.884985
vt 0.738787 0.648931
vt 0.755538 0.648903
vt 0.755728 0.884957
vt 0.582675 0.000000
vt 0.582675 0.435358
vt 0.966493 0.701105
vt 0.983247 0.701105
vt 0.322617 0.754096
vt 0.322617 0.672415
vt 0.377688 0.670086
vt 0.390176 0.751239
vt 0.966493 0.917225
vt 0.983247 0.917225
vt 0.612701 0.294428
vt 0.554262 0.291957
vt 0.986634 0.001911
vt 0.986691 0.131162
vt 0.969939 0.131139
vt 0.969883 0.001887
vt 0.986558 0.200459
vt 0.969807 0.200436
vt 0.983247 0.914784
vt 0.983247 0.782946
vt 0.997169 0.782945
vt 0.997169 0.914784
vt 0.620630 0.451489
vt 0.615273 0.558423
vt 0.556329 0.558176
vt 0.550966 0.451197
vt 0.437006 0.740259
vt 0.437006 0.630749
vt 0.580640 0.625785
vt 0.580640 0.735295
vt 0.986477 0.399069
vt 0.969726 0.399046
vt 0.145669 0.560806
vt 0.145669 0.682702
vt 0.000000 0.682702
vt 0.621821 0.109613
vt 0.554262 0.120002
vt 0.569259 0.107390
s 0
usemtl WoodPlanksOld.001
f 1/1/1 2/2/2 5/3/3 6/4/4 13/5/5 14/6/6 9/7/7 10/8/8
f 15/9/9 12/10/10 9/11/11 14/12/12
f 11/13/13 12/14/14 15/15/15 16/16/16 7/17/17 8/18/18 3/19/19 4/20/20
f 11/21/21 4/22/22 1/23/23 10/24/24
f 7/25/25 16/26/26 13/27/27 6/28/28
f 1/29/29 4/30/30 3/31/31 2/32/32
f 7/33/33 6/34/34 5/35/35 8/36/36
f 15/9/37 14/12/38 13/37/39 16/38/40
f 11/39/41 10/40/42 9/11/43 12/10/44
f 3/31/45 8/36/46 5/35/47 2/32/48
f 18/41/49 20/42/49 19/43/49 17/44/49
f 20/45/50 24/46/50 23/47/50 19/48/50
f 24/49/51 22/50/51 21/51/51 23/52/51
f 22/53/52 18/54/52 17/55/52 21/56/52
f 33/61/54 34/62/54 27/63/54 25/64/54
f 34/65/55 35/66/55 31/67/55 27/68/55
f 35/69/56 36/70/56 29/71/56 31/72/56
f 36/73/57 33/74/57 25/75/57 29/76/57
f 30/81/58 26/82/58 33/74/58 36/73/58
f 32/83/59 30/84/59 36/70/59 35/69/59
f 28/85/60 32/86/60 35/66/60 34/65/60
f 26/87/61 28/88/61 34/62/61 33/61/61
f 38/89/62 40/90/62 39/91/62 37/92/62
f 40/93/63 44/94/63 43/95/63 39/96/63
f 44/97/64 42/98/64 41/99/64 43/100/64
f 42/101/65 38/102/65 37/103/65 41/104/65
f 53/109/66 54/110/66 47/111/66 45/112/66
f 54/113/67 55/114/67 51/115/67 47/116/67
f 55/117/68 56/118/68 49/119/68 51/120/68
f 56/121/69 53/122/69 45/123/69 49/124/69
f 50/129/70 46/130/70 53/122/70 56/121/70
f 52/131/71 50/132/71 56/118/71 55/117/71
f 48/133/72 52/134/72 55/114/72 54/113/72
f 46/135/73 48/136/73 54/110/73 53/109/73
f 77/137/74 78/138/75 59/139/76 57/140/76
f 78/141/77 79/142/78 63/143/78 59/144/78
f 79/145/79 80/146/79 61/147/79 63/148/79
f 80/149/80 77/150/81 57/151/80 61/152/80
f 73/153/66 74/154/66 67/155/66 65/156/66
f 74/157/67 75/158/67 71/159/67 67/160/67
f 75/161/82 76/162/82 69/163/82 71/164/82
f 76/165/69 73/166/69 65/167/69 69/168/69
f 70/169/83 66/170/83 73/166/83 76/165/83
f 72/171/84 85/172/84 86/173/84 70/174/84 76/162/84 75/161/84
f 68/175/85 72/176/85 75/158/85 74/157/85
f 66/177/86 83/178/86 84/179/86 68/180/86 74/154/86 73/153/86
f 62/185/88 82/186/88 58/187/88 77/150/89 80/149/88
f 64/188/90 62/189/90 80/146/90 79/145/90
f 60/190/91 64/191/91 79/142/91 78/141/92
f 58/192/93 81/193/93 60/194/93 78/138/94 77/137/95
f 117/211/101 118/212/101 111/213/101 114/214/101 92/215/101
f 112/216/101 91/217/101 90/218/101 113/219/101
f 109/224/103 89/225/103 92/226/103 114/227/103
f 108/228/104 115/229/104 116/230/104 89/231/104 109/232/104
f 100/233/104 95/234/104 94/235/104 101/236/104
f 104/238/101 96/239/101 121/240/101 122/241/101 105/242/101
f 101/243/106 94/124/106 97/225/106 106/244/106
f 103/245/107 98/246/107 95/247/107 100/248/107
f 96/249/108 104/250/108 99/251/108 93/252/108
f 104/250/109 103/245/109 100/248/109 99/251/109
f 102/255/111 101/243/111 106/244/111 105/256/111
f 98/257/101 103/258/101 106/259/101 97/260/101
f 103/258/101 104/238/101 105/242/101 106/259/101
f 119/261/112 102/255/112 105/256/112 122/262/112
f 99/263/104 100/233/104 101/236/104 102/264/104
f 91/265/113 112/266/113 107/267/113 88/268/113
f 112/266/114 111/269/114 108/270/114 107/267/114
f 87/271/115 110/272/115 113/273/115 90/274/115
f 110/272/116 109/224/116 114/227/116 113/273/116
f 111/213/101 112/216/101 113/219/101 114/214/101
f 88/275/104 107/276/104 110/277/104 87/278/104
f 107/276/104 108/228/104 109/232/104 110/277/104
f 111/269/118 118/283/118 115/284/118 108/270/118
f 93/288/104 99/263/104 102/264/104 119/289/104 120/290/104
usemtl TreeLogEdgeWeathered
f 17/57/53 19/58/53 23/59/53 21/60/53
f 25/77/53 27/78/53 31/79/53 29/80/53
f 37/105/53 39/106/53 43/107/53 41/108/53
f 45/125/53 47/126/53 51/127/53 49/128/53
f 84/181/87 85/182/87 72/183/87 68/184/87
f 82/195/96 62/196/96 64/197/96 60/198/96 81/199/96
f 58/200/97 82/195/97 81/199/97
f 66/201/98 70/202/98 86/203/98 83/204/98
f 83/205/99 86/206/99 85/182/99 84/181/99
f 116/207/100 117/208/100 92/209/100 89/210/100
f 91/220/102 88/221/102 87/222/102 90/223/102
f 95/221/105 98/207/105 97/237/105 94/125/105
f 96/208/110 93/253/110 120/254/110 121/105/110
f 115/279/117 118/280/117 117/281/117 116/282/117
f 119/223/119 122/285/119 121/286/119 120/287/119
