# Blender 4.4.0
# www.blender.org
mtllib SwitchHandle.mtl
o SwitchHandle
v -0.998799 1.978764 -4.785321
v -1.000636 1.984355 -4.797312
v -0.975863 2.037663 -4.785088
v -0.972436 2.027233 -4.762720
v -1.005925 1.989272 -4.807857
v -0.985730 2.046835 -4.804758
v -1.014030 1.992922 -4.815683
v -1.000848 2.053643 -4.819358
v -1.023971 1.994864 -4.819848
v -1.019393 2.057266 -4.827126
v -1.034551 1.994864 -4.819848
v -1.039129 2.057266 -4.827126
v -1.044492 1.992922 -4.815683
v -1.057674 2.053643 -4.819358
v -1.052597 1.989272 -4.807857
v -1.072792 2.046835 -4.804758
v -1.057886 1.984355 -4.797312
v -1.082659 2.037663 -4.785088
v -1.059723 1.978764 -4.785321
v -1.086087 2.027233 -4.762720
v -1.057886 1.973172 -4.773330
v -1.082659 2.016802 -4.740352
v -1.052597 1.968256 -4.762785
v -1.072792 2.007630 -4.720682
v -1.044492 1.964606 -4.754959
v -1.057674 2.000822 -4.706082
v -1.034551 1.962664 -4.750795
v -1.039129 1.997199 -4.698313
v -1.023971 1.962664 -4.750795
v -1.019393 1.997199 -4.698313
v -1.014030 1.964606 -4.754959
v -1.000848 2.000822 -4.706081
v -1.005925 1.968256 -4.762785
v -0.985730 2.007630 -4.720681
v -1.000636 1.973172 -4.773330
v -0.975863 2.016802 -4.740352
v -0.958516 2.095208 -4.767100
v -0.953976 2.081390 -4.737466
v -0.971589 2.107360 -4.793160
v -0.991618 2.116380 -4.812503
v -1.016188 2.121179 -4.822795
v -1.042334 2.121179 -4.822795
v -1.066904 2.116380 -4.812503
v -1.086933 2.107360 -4.793160
v -1.100006 2.095208 -4.767100
v -1.104546 2.081390 -4.737466
v -1.100006 2.067571 -4.707831
v -1.086933 2.055419 -4.681771
v -1.066904 2.046399 -4.662429
v -1.042334 2.041600 -4.652137
v -1.016188 2.041600 -4.652137
v -0.991618 2.046399 -4.662429
v -0.971589 2.055419 -4.681771
v -0.958516 2.067571 -4.707831
v -0.954120 2.141798 -4.747617
v -0.949298 2.127121 -4.716141
v -0.968006 2.154705 -4.775296
v -0.989280 2.164285 -4.795841
v -1.015376 2.169383 -4.806772
v -1.043146 2.169383 -4.806772
v -1.069242 2.164285 -4.795840
v -1.090516 2.154705 -4.775296
v -1.104402 2.141798 -4.747617
v -1.109224 2.127121 -4.716141
v -1.104402 2.112443 -4.684665
v -1.090516 2.099536 -4.656986
v -1.069242 2.089956 -4.636442
v -1.043146 2.084859 -4.625510
v -1.015376 2.084859 -4.625510
v -0.989280 2.089956 -4.636442
v -0.968006 2.099536 -4.656986
v -0.954120 2.112443 -4.684665
v -0.968755 2.161581 -4.730928
v -0.964872 2.149763 -4.705583
v -0.979936 2.171975 -4.753217
v -0.997066 2.179688 -4.769760
v -1.018080 2.183793 -4.778562
v -1.040442 2.183793 -4.778562
v -1.061455 2.179688 -4.769760
v -1.078586 2.171975 -4.753217
v -1.089767 2.161581 -4.730928
v -1.093650 2.149763 -4.705583
v -1.089767 2.137944 -4.680238
v -1.078586 2.127551 -4.657949
v -1.061455 2.119837 -4.641407
v -1.040442 2.115732 -4.632604
v -1.018080 2.115732 -4.632604
v -0.997067 2.119837 -4.641406
v -0.979936 2.127551 -4.657949
v -0.968755 2.137944 -4.680238
v -0.996105 2.169003 -4.713520
v -0.993977 2.162527 -4.699631
v -1.002232 2.174698 -4.725734
v -1.011619 2.178926 -4.734799
v -1.023134 2.181175 -4.739623
v -1.035388 2.181175 -4.739623
v -1.046903 2.178926 -4.734799
v -1.056290 2.174699 -4.725733
v -1.062417 2.169003 -4.713520
v -1.064545 2.162527 -4.699631
v -1.062417 2.156050 -4.685742
v -1.056290 2.150355 -4.673528
v -1.046903 2.146128 -4.664463
v -1.035388 2.143878 -4.659639
v -1.023134 2.143878 -4.659639
v -1.011619 2.146127 -4.664463
v -1.002232 2.150355 -4.673529
v -0.996105 2.156050 -4.685742
v -1.229374 1.638640 -4.995750
v -1.196490 1.638640 -4.995750
v -1.229374 1.998809 -4.827801
v -1.196490 1.998809 -4.827801
v -1.229374 1.598958 -4.910652
v -1.196490 1.598958 -4.910652
v -1.229374 1.959127 -4.742702
v -1.196490 1.959127 -4.742702
v -1.196490 1.976176 -4.838355
v -1.196490 1.936494 -4.753256
v -0.862379 1.976176 -4.838355
v -0.862379 1.998809 -4.827801
v -0.862379 1.959127 -4.742702
v -0.862379 1.936494 -4.753256
v -0.829374 1.976176 -4.838355
v -0.829374 1.998809 -4.827801
v -0.829374 1.959127 -4.742702
v -0.829374 1.936494 -4.753256
v -0.862379 1.598911 -4.910674
v -0.862379 1.638593 -4.995772
v -0.829374 1.638593 -4.995772
v -0.829374 1.598911 -4.910674
v -1.229374 1.975399 -4.838717
v -1.229374 1.935716 -4.753619
vn 0.8969 -0.4007 -0.1869
vn 0.8583 -0.3041 -0.4133
vn 0.8903 -0.2339 -0.3906
vn 0.9291 -0.3351 -0.1563
vn 0.7351 -0.2234 -0.6401
vn 0.7655 -0.1467 -0.6265
vn 0.5108 -0.1620 -0.8443
vn 0.5350 -0.0775 -0.8413
vn 0.1857 -0.1273 -0.9743
vn 0.1954 -0.0371 -0.9800
vn -0.1857 -0.1273 -0.9743
vn -0.1954 -0.0371 -0.9800
vn -0.5108 -0.1620 -0.8443
vn -0.5350 -0.0775 -0.8413
vn -0.7351 -0.2234 -0.6401
vn -0.7655 -0.1467 -0.6265
vn -0.8583 -0.3041 -0.4133
vn -0.8903 -0.2339 -0.3906
vn -0.8969 -0.4007 -0.1869
vn -0.9291 -0.3351 -0.1563
vn -0.8583 -0.5121 0.0327
vn -0.8903 -0.4496 0.0719
vn -0.7351 -0.6340 0.2403
vn -0.7655 -0.5742 0.2904
vn -0.5108 -0.7509 0.4186
vn -0.5350 -0.6943 0.4814
vn -0.1857 -0.8282 0.5288
vn -0.1954 -0.7746 0.6016
vn 0.1857 -0.8282 0.5288
vn 0.1954 -0.7746 0.6016
vn 0.5108 -0.7509 0.4186
vn 0.5350 -0.6943 0.4814
vn 0.7351 -0.6340 0.2403
vn 0.7655 -0.5742 0.2904
vn 0.8583 -0.5121 0.0327
vn 0.8903 -0.4496 0.0719
vn 0.9420 -0.0666 -0.3290
vn 0.9808 -0.1768 -0.0825
vn 0.8154 0.0358 -0.5778
vn 0.5756 0.1242 -0.8083
vn 0.2120 0.1800 -0.9606
vn -0.2120 0.1800 -0.9606
vn -0.5756 0.1242 -0.8083
vn -0.8154 0.0358 -0.5778
vn -0.9420 -0.0666 -0.3290
vn -0.9808 -0.1768 -0.0825
vn -0.9420 -0.2948 0.1604
vn -0.8154 -0.4196 0.3988
vn -0.5756 -0.5393 0.6147
vn -0.2120 -0.6201 0.7553
vn 0.2120 -0.6201 0.7553
vn 0.5756 -0.5393 0.6147
vn 0.8154 -0.4196 0.3988
vn 0.9420 -0.2948 0.1604
vn 0.9310 0.3385 -0.1366
vn 0.9698 0.2210 0.1030
vn 0.8047 0.4641 -0.3703
vn 0.5668 0.5850 -0.5802
vn 0.2083 0.6666 -0.7157
vn -0.2083 0.6666 -0.7157
vn -0.5668 0.5850 -0.5802
vn -0.8047 0.4641 -0.3703
vn -0.9310 0.3385 -0.1366
vn -0.9698 0.2210 0.1030
vn -0.9310 0.1130 0.3471
vn -0.8047 0.0146 0.5935
vn -0.5668 -0.0684 0.8210
vn -0.2083 -0.1198 0.9707
vn 0.2083 -0.1198 0.9707
vn 0.5668 -0.0684 0.8210
vn 0.8047 0.0146 0.5935
vn 0.9310 0.1130 0.3471
vn 0.6116 0.7733 0.1672
vn 0.6449 0.6927 0.3230
vn 0.5109 0.8592 0.0281
vn 0.3434 0.9357 -0.0805
vn 0.1217 0.9824 -0.1415
vn -0.1217 0.9824 -0.1415
vn -0.3434 0.9357 -0.0805
vn -0.5109 0.8592 0.0281
vn -0.6116 0.7733 0.1671
vn -0.6449 0.6927 0.3230
vn -0.6116 0.6251 0.4849
vn -0.5109 0.5738 0.6401
vn -0.3434 0.5398 0.7685
vn -0.1217 0.5231 0.8436
vn 0.1217 0.5231 0.8436
vn 0.3434 0.5398 0.7685
vn 0.5109 0.5738 0.6401
vn 0.6116 0.6251 0.4849
vn 0.4110 0.8691 0.2753
vn 0.4356 0.8158 0.3804
vn 0.3388 0.9228 0.1834
vn 0.2239 0.9679 0.1143
vn 0.0784 0.9939 0.0770
vn -0.0784 0.9939 0.0770
vn -0.2239 0.9679 0.1143
vn -0.3388 0.9228 0.1833
vn -0.4111 0.8691 0.2753
vn -0.4356 0.8158 0.3804
vn -0.4111 0.7695 0.4888
vn -0.3388 0.7336 0.5891
vn -0.2239 0.7097 0.6680
vn -0.0784 0.6979 0.7119
vn 0.0784 0.6979 0.7119
vn 0.2239 0.7097 0.6679
vn 0.3388 0.7336 0.5891
vn 0.4110 0.7695 0.4888
vn -0.0000 0.9063 0.4226
vn -0.0000 0.4226 -0.9063
vn -0.0000 -0.4226 0.9063
vn -0.0000 -0.9063 -0.4226
vn 1.0000 -0.0000 -0.0000
vn -1.0000 -0.0000 -0.0000
vt 0.242033 0.242590
vt 0.266134 0.242590
vt 0.266134 0.438061
vt 0.242033 0.438061
vt 0.290221 0.242590
vt 0.290221 0.438061
vt 0.314293 0.242590
vt 0.314293 0.438061
vt 0.338345 0.242590
vt 0.338345 0.438061
vt 0.362370 0.242590
vt 0.362370 0.438061
vt 0.386379 0.242590
vt 0.386379 0.438061
vt 0.410413 0.242590
vt 0.410413 0.438061
vt 0.434404 0.242590
vt 0.434404 0.438061
vt 0.001456 0.242590
vt 0.025312 0.242590
vt 0.025312 0.438061
vt 0.001456 0.438061
vt 0.049352 0.242590
vt 0.049352 0.438061
vt 0.073421 0.242590
vt 0.073421 0.438061
vt 0.097505 0.242590
vt 0.097505 0.438061
vt 0.121599 0.242590
vt 0.121599 0.438061
vt 0.145696 0.242590
vt 0.145696 0.438061
vt 0.169790 0.242590
vt 0.169790 0.438061
vt 0.193881 0.242590
vt 0.193881 0.438061
vt 0.217966 0.242590
vt 0.217966 0.438061
vt 0.266134 0.652456
vt 0.242033 0.652456
vt 0.290221 0.652456
vt 0.314293 0.652456
vt 0.338345 0.652456
vt 0.362370 0.652456
vt 0.386379 0.652456
vt 0.410413 0.652456
vt 0.434404 0.652456
vt 0.025312 0.652456
vt 0.001456 0.652456
vt 0.049352 0.652456
vt 0.073421 0.652456
vt 0.097505 0.652456
vt 0.121599 0.652456
vt 0.145696 0.652456
vt 0.169790 0.652456
vt 0.193881 0.652456
vt 0.217966 0.652456
vt 0.266134 0.831385
vt 0.242033 0.831385
vt 0.290221 0.831385
vt 0.314293 0.831385
vt 0.338345 0.831385
vt 0.362370 0.831385
vt 0.386379 0.831385
vt 0.410413 0.831385
vt 0.434404 0.831385
vt 0.025312 0.831385
vt 0.001456 0.831385
vt 0.049352 0.831385
vt 0.073421 0.831385
vt 0.097505 0.831385
vt 0.121599 0.831385
vt 0.145696 0.831385
vt 0.169790 0.831385
vt 0.193881 0.831385
vt 0.217966 0.831385
vt 0.266134 0.924401
vt 0.242033 0.924401
vt 0.290221 0.924401
vt 0.314293 0.924401
vt 0.338345 0.924401
vt 0.362370 0.924401
vt 0.386379 0.924401
vt 0.410413 0.924401
vt 0.434404 0.924401
vt 0.025312 0.924401
vt 0.001456 0.924401
vt 0.049352 0.924401
vt 0.073421 0.924401
vt 0.097505 0.924401
vt 0.121599 0.924401
vt 0.145696 0.924401
vt 0.169790 0.924401
vt 0.193881 0.924401
vt 0.217966 0.924401
vt 0.266134 0.997407
vt 0.242033 0.997407
vt 0.290221 0.997407
vt 0.314293 0.997407
vt 0.338345 0.997407
vt 0.362370 0.997407
vt 0.386379 0.997407
vt 0.410413 0.997407
vt 0.434404 0.997407
vt 0.025312 0.997407
vt 0.001456 0.997407
vt 0.049352 0.997407
vt 0.073421 0.997407
vt 0.097505 0.997407
vt 0.121599 0.997407
vt 0.145696 0.997407
vt 0.169790 0.997407
vt 0.193881 0.997407
vt 0.217966 0.997407
vt 0.331251 0.227693
vt 0.313047 0.204890
vt 0.301165 0.104299
vt 0.313047 0.073577
vt 0.730715 0.931106
vt 0.697307 0.933177
vt 0.697306 0.034656
vt 0.730715 0.034656
vt 0.841846 0.134327
vt 0.841846 0.939891
vt 0.808222 0.938034
vt 0.808222 0.134327
vt 0.808222 0.034582
vt 0.841846 0.034582
vt 0.622185 0.933177
vt 0.622185 0.034656
vt 0.956087 0.497574
vt 0.956087 0.541933
vt 0.880481 0.541933
vt 0.880481 0.497574
vt 0.805836 0.931106
vt 0.805836 0.034656
vt 0.511072 0.998074
vt 0.435950 0.998074
vt 0.435950 0.937825
vt 0.511072 0.937825
vt 0.997031 0.497574
vt 0.956087 0.046866
vt 0.997030 0.046866
vt 0.880481 0.046866
vt 0.880091 0.544842
vt 0.921035 0.544841
vt 0.921035 0.995549
vt 0.880092 0.995549
vt 0.996641 0.544841
vt 0.996641 0.995549
vt 0.956087 0.002344
vt 0.997030 0.002344
vt 0.880481 0.002344
vt 0.956086 0.002344
vt 0.843748 0.994846
vt 0.843748 0.940830
vt 0.877496 0.940830
vt 0.877496 0.994846
vt 0.843748 0.135154
vt 0.843748 0.035409
vt 0.877496 0.035409
vt 0.877496 0.135154
vt 0.619724 0.937825
vt 0.544603 0.937825
vt 0.544603 0.039179
vt 0.619724 0.039179
vt 0.511071 0.039179
vt 0.435950 0.039179
vt 0.301165 0.174169
vt 0.297039 0.139234
vt 0.331251 0.050775
vt 0.353582 0.239826
vt 0.353582 0.038642
vt 0.377345 0.239826
vt 0.377345 0.038642
vt 0.399676 0.227693
vt 0.399676 0.050775
vt 0.417880 0.204890
vt 0.417880 0.073577
vt 0.429762 0.174169
vt 0.429762 0.104299
vt 0.433888 0.139234
vt 0.805836 0.993426
vt 0.730715 0.993426
vt 0.841846 0.993907
vt 0.808222 0.993907
vt 0.697307 0.993426
s 1
usemtl lampTexturesMettalic
f 1/1/1 2/2/2 3/3/3
f 3/3/3 4/4/4 1/1/1
f 2/2/2 5/5/5 6/6/6
f 6/6/6 3/3/3 2/2/2
f 5/5/5 7/7/7 8/8/8
f 8/8/8 6/6/6 5/5/5
f 7/7/7 9/9/9 10/10/10
f 10/10/10 8/8/8 7/7/7
f 9/9/9 11/11/11 12/12/12
f 12/12/12 10/10/10 9/9/9
f 11/11/11 13/13/13 14/14/14
f 14/14/14 12/12/12 11/11/11
f 13/13/13 15/15/15 16/16/16
f 16/16/16 14/14/14 13/13/13
f 15/15/15 17/17/17 18/18/18
f 18/18/18 16/16/16 15/15/15
f 17/19/17 19/20/19 20/21/20
f 20/21/20 18/22/18 17/19/17
f 19/20/19 21/23/21 22/24/22
f 22/24/22 20/21/20 19/20/19
f 21/23/21 23/25/23 24/26/24
f 24/26/24 22/24/22 21/23/21
f 23/25/23 25/27/25 26/28/26
f 26/28/26 24/26/24 23/25/23
f 25/27/25 27/29/27 28/30/28
f 28/30/28 26/28/26 25/27/25
f 27/29/27 29/31/29 30/32/30
f 30/32/30 28/30/28 27/29/27
f 29/31/29 31/33/31 32/34/32
f 32/34/32 30/32/30 29/31/29
f 31/33/31 33/35/33 34/36/34
f 34/36/34 32/34/32 31/33/31
f 33/35/33 35/37/35 36/38/36
f 36/38/36 34/36/34 33/35/33
f 35/37/35 1/1/1 4/4/4
f 4/4/4 36/38/36 35/37/35
f 4/4/4 3/3/3 37/39/37
f 37/39/37 38/40/38 4/4/4
f 3/3/3 6/6/6 39/41/39
f 39/41/39 37/39/37 3/3/3
f 6/6/6 8/8/8 40/42/40
f 40/42/40 39/41/39 6/6/6
f 8/8/8 10/10/10 41/43/41
f 41/43/41 40/42/40 8/8/8
f 10/10/10 12/12/12 42/44/42
f 42/44/42 41/43/41 10/10/10
f 12/12/12 14/14/14 43/45/43
f 43/45/43 42/44/42 12/12/12
f 14/14/14 16/16/16 44/46/44
f 44/46/44 43/45/43 14/14/14
f 16/16/16 18/18/18 45/47/45
f 45/47/45 44/46/44 16/16/16
f 18/22/18 20/21/20 46/48/46
f 46/48/46 45/49/45 18/22/18
f 20/21/20 22/24/22 47/50/47
f 47/50/47 46/48/46 20/21/20
f 22/24/22 24/26/24 48/51/48
f 48/51/48 47/50/47 22/24/22
f 24/26/24 26/28/26 49/52/49
f 49/52/49 48/51/48 24/26/24
f 26/28/26 28/30/28 50/53/50
f 50/53/50 49/52/49 26/28/26
f 28/30/28 30/32/30 51/54/51
f 51/54/51 50/53/50 28/30/28
f 30/32/30 32/34/32 52/55/52
f 52/55/52 51/54/51 30/32/30
f 32/34/32 34/36/34 53/56/53
f 53/56/53 52/55/52 32/34/32
f 34/36/34 36/38/36 54/57/54
f 54/57/54 53/56/53 34/36/34
f 36/38/36 4/4/4 38/40/38
f 38/40/38 54/57/54 36/38/36
f 38/40/38 37/39/37 55/58/55
f 55/58/55 56/59/56 38/40/38
f 37/39/37 39/41/39 57/60/57
f 57/60/57 55/58/55 37/39/37
f 39/41/39 40/42/40 58/61/58
f 58/61/58 57/60/57 39/41/39
f 40/42/40 41/43/41 59/62/59
f 59/62/59 58/61/58 40/42/40
f 41/43/41 42/44/42 60/63/60
f 60/63/60 59/62/59 41/43/41
f 42/44/42 43/45/43 61/64/61
f 61/64/61 60/63/60 42/44/42
f 43/45/43 44/46/44 62/65/62
f 62/65/62 61/64/61 43/45/43
f 44/46/44 45/47/45 63/66/63
f 63/66/63 62/65/62 44/46/44
f 45/49/45 46/48/46 64/67/64
f 64/67/64 63/68/63 45/49/45
f 46/48/46 47/50/47 65/69/65
f 65/69/65 64/67/64 46/48/46
f 47/50/47 48/51/48 66/70/66
f 66/70/66 65/69/65 47/50/47
f 48/51/48 49/52/49 67/71/67
f 67/71/67 66/70/66 48/51/48
f 49/52/49 50/53/50 68/72/68
f 68/72/68 67/71/67 49/52/49
f 50/53/50 51/54/51 69/73/69
f 69/73/69 68/72/68 50/53/50
f 51/54/51 52/55/52 70/74/70
f 70/74/70 69/73/69 51/54/51
f 52/55/52 53/56/53 71/75/71
f 71/75/71 70/74/70 52/55/52
f 53/56/53 54/57/54 72/76/72
f 72/76/72 71/75/71 53/56/53
f 54/57/54 38/40/38 56/59/56
f 56/59/56 72/76/72 54/57/54
f 56/59/56 55/58/55 73/77/73
f 73/77/73 74/78/74 56/59/56
f 55/58/55 57/60/57 75/79/75
f 75/79/75 73/77/73 55/58/55
f 57/60/57 58/61/58 76/80/76
f 76/80/76 75/79/75 57/60/57
f 58/61/58 59/62/59 77/81/77
f 77/81/77 76/80/76 58/61/58
f 59/62/59 60/63/60 78/82/78
f 78/82/78 77/81/77 59/62/59
f 60/63/60 61/64/61 79/83/79
f 79/83/79 78/82/78 60/63/60
f 61/64/61 62/65/62 80/84/80
f 80/84/80 79/83/79 61/64/61
f 62/65/62 63/66/63 81/85/81
f 81/85/81 80/84/80 62/65/62
f 63/68/63 64/67/64 82/86/82
f 82/86/82 81/87/81 63/68/63
f 64/67/64 65/69/65 83/88/83
f 83/88/83 82/86/82 64/67/64
f 65/69/65 66/70/66 84/89/84
f 84/89/84 83/88/83 65/69/65
f 66/70/66 67/71/67 85/90/85
f 85/90/85 84/89/84 66/70/66
f 67/71/67 68/72/68 86/91/86
f 86/91/86 85/90/85 67/71/67
f 68/72/68 69/73/69 87/92/87
f 87/92/87 86/91/86 68/72/68
f 69/73/69 70/74/70 88/93/88
f 88/93/88 87/92/87 69/73/69
f 70/74/70 71/75/71 89/94/89
f 89/94/89 88/93/88 70/74/70
f 71/75/71 72/76/72 90/95/90
f 90/95/90 89/94/89 71/75/71
f 72/76/72 56/59/56 74/78/74
f 74/78/74 90/95/90 72/76/72
f 74/78/74 73/77/73 91/96/91
f 91/96/91 92/97/92 74/78/74
f 73/77/73 75/79/75 93/98/93
f 93/98/93 91/96/91 73/77/73
f 75/79/75 76/80/76 94/99/94
f 94/99/94 93/98/93 75/79/75
f 76/80/76 77/81/77 95/100/95
f 95/100/95 94/99/94 76/80/76
f 77/81/77 78/82/78 96/101/96
f 96/101/96 95/100/95 77/81/77
f 78/82/78 79/83/79 97/102/97
f 97/102/97 96/101/96 78/82/78
f 79/83/79 80/84/80 98/103/98
f 98/103/98 97/102/97 79/83/79
f 80/84/80 81/85/81 99/104/99
f 99/104/99 98/103/98 80/84/80
f 81/87/81 82/86/82 100/105/100
f 100/105/100 99/106/99 81/87/81
f 82/86/82 83/88/83 101/107/101
f 101/107/101 100/105/100 82/86/82
f 83/88/83 84/89/84 102/108/102
f 102/108/102 101/107/101 83/88/83
f 84/89/84 85/90/85 103/109/103
f 103/109/103 102/108/102 84/89/84
f 85/90/85 86/91/86 104/110/104
f 104/110/104 103/109/103 85/90/85
f 86/91/86 87/92/87 105/111/105
f 105/111/105 104/110/104 86/91/86
f 87/92/87 88/93/88 106/112/106
f 106/112/106 105/111/105 87/92/87
f 88/93/88 89/94/89 107/113/107
f 107/113/107 106/112/106 88/93/88
f 89/94/89 90/95/90 108/114/108
f 108/114/108 107/113/107 89/94/89
f 90/95/90 74/78/74 92/97/92
f 92/97/92 108/114/108 90/95/90
f 97/115/109 98/116/109 101/117/109
f 101/117/109 102/118/109 97/115/109
f 131/119/110 117/120/110 110/121/110
f 110/121/110 109/122/110 131/119/110
f 114/123/111 118/124/111 132/125/111
f 132/125/111 113/126/111 114/123/111
f 109/127/112 110/128/112 114/123/112
f 114/123/112 113/126/112 109/127/112
f 117/120/113 118/129/113 114/130/113
f 114/130/113 110/121/113 117/120/113
f 112/131/109 111/132/109 115/133/109
f 115/133/109 116/134/109 112/131/109
f 132/135/114 131/119/114 109/122/114
f 109/122/114 113/136/114 132/135/114
f 124/137/113 125/138/113 126/139/113
f 126/139/113 123/140/113 124/137/113
f 117/141/110 112/131/110 120/142/110
f 120/142/110 119/143/110 117/141/110
f 112/131/109 116/134/109 121/144/109
f 121/144/109 120/142/109 112/131/109
f 116/145/111 118/146/111 122/147/111
f 122/147/111 121/148/111 116/145/111
f 118/146/112 117/149/112 119/150/112
f 119/150/112 122/147/112 118/146/112
f 119/143/110 120/142/110 124/151/110
f 124/151/110 123/152/110 119/143/110
f 120/142/109 121/144/109 125/153/109
f 125/153/109 124/154/109 120/142/109
f 121/155/111 122/156/111 126/157/111
f 126/157/111 125/158/111 121/155/111
f 127/159/112 128/160/112 129/161/112
f 129/161/112 130/162/112 127/159/112
f 122/163/114 119/164/114 128/165/114
f 128/165/114 127/166/114 122/163/114
f 119/164/110 123/140/110 129/167/110
f 129/167/110 128/165/110 119/164/110
f 123/140/113 126/139/113 130/168/113
f 130/168/113 129/167/113 123/140/113
f 126/157/111 122/156/111 127/159/111
f 127/159/111 130/162/111 126/157/111
f 99/169/109 100/170/109 101/117/109
f 101/117/109 98/116/109 99/169/109
f 103/171/109 96/172/109 97/115/109
f 97/115/109 102/118/109 103/171/109
f 104/173/109 95/174/109 96/172/109
f 96/172/109 103/171/109 104/173/109
f 105/175/109 94/176/109 95/174/109
f 95/174/109 104/173/109 105/175/109
f 106/177/109 93/178/109 94/176/109
f 94/176/109 105/175/109 106/177/109
f 107/179/109 91/180/109 93/178/109
f 93/178/109 106/177/109 107/179/109
f 108/181/109 92/182/109 91/180/109
f 91/180/109 107/179/109 108/181/109
f 115/183/114 111/184/114 131/119/114
f 131/119/114 132/135/114 115/183/114
f 118/124/111 116/185/111 115/186/111
f 115/186/111 132/125/111 118/124/111
f 111/184/110 112/187/110 117/120/110
f 117/120/110 131/119/110 111/184/110
