# Blender 4.4.0
# www.blender.org
mtllib Entrance_door.mtl
o Entrance_door
v -0.700000 0.024302 -7.825000
v -0.536667 2.617314 -8.080000
v -0.700000 2.798011 -7.825000
v -0.525000 2.604407 -8.080000
v -0.525000 0.024302 -8.080000
v -0.536667 2.617314 -8.085000
v -0.536667 0.024302 -8.085000
v -0.536667 0.024302 -8.080000
v -0.700000 0.024302 -8.082872
v -0.695035 0.024302 -8.085000
v -0.698546 0.024302 -8.084376
v -0.695035 2.792518 -8.085000
v -0.700000 2.798011 -8.082871
v -0.698032 2.795834 -8.084376
v -0.700000 2.798011 -8.080540
v -0.700000 0.024302 -8.080540
v -0.700000 0.024302 -7.829661
v -0.698833 2.799302 -7.829661
v -0.687167 2.786395 -8.080000
v -0.688333 0.024302 -8.080000
v -0.688333 0.024302 -7.830000
v -0.687167 2.786395 -7.830000
v -0.523833 2.605698 -8.080000
v -0.535500 2.618605 -8.085000
v -0.535500 2.618605 -8.080000
v -0.698833 2.799302 -7.825000
v -0.696865 2.797124 -8.084376
v -0.693868 2.793809 -8.085000
v -0.698833 2.799302 -8.082871
v -0.698833 2.799302 -8.080540
v -0.700000 2.798011 -7.829661
v -0.688333 2.785105 -7.830000
v -0.688333 2.785105 -8.080000
v -0.687451 2.785419 -8.080040
v -0.699044 2.798244 -8.080580
v -0.699044 2.798244 -8.082694
v -0.697088 2.796080 -8.084085
v -0.694110 2.792786 -8.084661
v -0.536745 2.618691 -8.084661
v -0.536745 2.618691 -8.080040
v -0.525152 2.605866 -8.080040
v -0.699044 2.798244 -7.825402
v -0.699044 2.798244 -7.829292
v -0.687451 2.785419 -7.829631
v -0.525000 0.024302 -7.826455
v -0.528396 0.024302 -7.825000
v -0.525995 0.024302 -7.825426
v -0.528131 2.607930 -7.825018
v -0.525000 2.603251 -7.826455
v -0.525956 2.605757 -7.825534
v -0.522788 2.605564 -7.826464
v -0.527018 2.609455 -7.825000
v -0.525015 2.606801 -7.825530
v -0.528276 2.609322 -7.825402
v -0.525152 2.605866 -7.827185
v -0.526557 2.607419 -7.826192
v 0.700000 0.024302 -7.825000
v 0.536667 2.617314 -8.080000
v 0.700000 2.798011 -7.825000
v 0.525000 2.604407 -8.080000
v 0.525000 0.024302 -8.080000
v 0.536667 2.617314 -8.085000
v 0.536667 0.024302 -8.085000
v 0.536667 0.024302 -8.080000
v 0.700000 0.024302 -8.082872
v 0.695035 0.024302 -8.085000
v 0.698546 0.024302 -8.084376
v 0.695035 2.792518 -8.085000
v 0.700000 2.798011 -8.082872
v 0.698032 2.795834 -8.084376
v 0.700000 2.798011 -8.080540
v 0.700000 0.024302 -8.080540
v 0.700000 0.024302 -7.829661
v 0.698833 2.799302 -7.829661
v 0.687167 2.786395 -8.080000
v 0.688333 0.024302 -8.080000
v 0.688333 0.024302 -7.830000
v 0.687167 2.786395 -7.830000
v 0.523833 2.605698 -8.080000
v 0.535500 2.618605 -8.085000
v 0.535500 2.618605 -8.080000
v 0.698833 2.799302 -7.825000
v 0.696865 2.797124 -8.084376
v 0.693868 2.793809 -8.085000
v 0.698833 2.799302 -8.082872
v 0.698833 2.799302 -8.080540
v 0.700000 2.798011 -7.829661
v 0.688333 2.785105 -7.830000
v 0.688333 2.785105 -8.080000
v 0.687451 2.785419 -8.080040
v 0.699044 2.798244 -8.080580
v 0.699044 2.798244 -8.082694
v 0.697088 2.796080 -8.084085
v 0.694110 2.792786 -8.084661
v 0.536745 2.618691 -8.084661
v 0.536745 2.618691 -8.080040
v 0.525152 2.605866 -8.080040
v 0.699044 2.798244 -7.825402
v 0.699044 2.798244 -7.829293
v 0.687451 2.785419 -7.829631
v 0.525000 0.024302 -7.826456
v 0.528396 0.024302 -7.825000
v 0.525995 0.024302 -7.825426
v 0.528131 2.607930 -7.825018
v 0.525000 2.603251 -7.826456
v 0.525956 2.605757 -7.825534
v 0.522788 2.605564 -7.826464
v 0.527018 2.609455 -7.825000
v 0.525015 2.606801 -7.825530
v 0.528276 2.609322 -7.825402
v 0.525152 2.605866 -7.827185
v 0.526557 2.607419 -7.826192
vn 0.9972 0.0745 0.0002
vn -0.2908 -0.2630 0.9199
vn -0.0000 0.0262 -0.9997
vn -0.0000 1.0000 -0.0000
vn -0.0000 -0.0000 -1.0000
vn 1.0000 -0.0000 -0.0000
vn -1.0000 -0.0000 -0.0000
vn -0.0000 0.5684 -0.8227
vn -0.0000 0.4280 -0.9038
vn -0.0000 -1.0000 -0.0000
vn -0.1881 -0.0000 -0.9821
vn -0.3830 -0.0000 -0.9238
vn -0.4891 -0.0000 -0.8722
vn -0.6603 0.0001 -0.7510
vn -0.0000 0.1848 -0.9828
vn -0.0000 0.0418 0.9991
vn -0.0290 -0.0000 -0.9996
vn -0.0462 -0.0000 0.9989
vn -0.0000 -0.6028 0.7979
vn -0.0707 -0.0221 0.9972
vn -0.9808 0.1948 -0.0000
vn -0.6252 -0.0456 -0.7791
vn -0.3892 -0.1882 -0.9018
vn -0.2710 -0.2449 -0.9309
vn -0.0693 -0.9976 -0.0000
vn 0.0344 0.0311 -0.9989
vn -0.1264 -0.9920 -0.0000
vn -0.3102 -0.2563 -0.9155
vn 0.0245 0.0640 0.9976
vn -0.2362 0.9717 -0.0000
vn 0.0523 0.5863 -0.8084
vn 0.2102 0.3553 -0.9108
vn 0.2709 0.2449 -0.9309
vn 0.9984 0.0566 -0.0000
vn -0.0344 -0.0311 -0.9989
vn 0.3127 0.2827 0.9068
vn -0.0000 -0.0000 1.0000
vn 0.2840 0.2808 -0.9168
vn 0.2017 -0.0000 0.9795
vn 0.7071 -0.0000 0.7072
vn -0.0000 -0.1957 0.9807
vn -0.0000 -1.0000 -0.0005
vn 0.6287 0.3841 0.6762
vn 0.8525 0.2909 0.4343
vn -0.3589 -0.7996 0.4816
vn -0.3802 -0.5302 0.7579
vn 0.0001 -0.0000 1.0000
vn -0.9972 0.0745 0.0002
vn 0.2907 -0.2630 0.9200
vn 0.1881 -0.0000 -0.9821
vn 0.4891 -0.0000 -0.8722
vn 0.3830 -0.0000 -0.9238
vn 0.6603 0.0001 -0.7510
vn 0.0290 -0.0000 -0.9996
vn 0.0462 -0.0000 0.9989
vn 0.0708 -0.0221 0.9972
vn 0.9808 0.1948 -0.0000
vn 0.6252 -0.0456 -0.7791
vn 0.3891 -0.1882 -0.9018
vn 0.2710 -0.2449 -0.9309
vn 0.0693 -0.9976 -0.0000
vn -0.0344 0.0311 -0.9989
vn 0.1264 -0.9920 -0.0000
vn 0.9808 0.1949 -0.0000
vn 0.3102 -0.2563 -0.9155
vn -0.0245 0.0640 0.9976
vn 0.2362 0.9717 -0.0000
vn -0.0523 0.5863 -0.8084
vn -0.2102 0.3553 -0.9108
vn -0.2709 0.2449 -0.9309
vn -0.9984 0.0566 -0.0000
vn 0.0344 -0.0311 -0.9989
vn -0.3127 0.2827 0.9068
vn -0.2840 0.2808 -0.9168
vn -0.2017 -0.0000 0.9795
vn -0.7071 -0.0000 0.7072
vn -0.6287 0.3841 0.6762
vn -0.8525 0.2909 0.4343
vn 0.3589 -0.7996 0.4816
vn 0.3802 -0.5302 0.7579
vn -0.0001 -0.0000 1.0000
vt 0.401514 0.768451
vt 0.595525 0.768796
vt 0.595564 0.769231
vt 0.402031 0.769248
vt 0.673943 0.004914
vt 0.730372 0.061019
vt 0.730186 0.061518
vt 0.673907 0.005168
vt 0.670415 0.463558
vt 0.666584 0.459759
vt 0.666584 0.008961
vt 0.670415 0.005163
vt 0.987804 0.463502
vt 0.987837 0.005229
vt 0.989582 0.005229
vt 0.989546 0.463503
vt 0.599351 0.772623
vt 0.595531 0.003985
vt 0.599358 0.003984
vt 0.603173 0.772610
vt 0.603195 0.003983
vt 0.659182 0.826098
vt 0.657438 0.826097
vt 0.657568 0.003983
vt 0.659340 0.003983
vt 0.401520 0.003984
vt 0.986512 0.462870
vt 0.986543 0.005862
vt 0.933490 0.409980
vt 0.929669 0.409995
vt 0.929680 0.058742
vt 0.933505 0.058757
vt 0.655106 0.824546
vt 0.655129 0.003984
vt 0.656364 0.003984
vt 0.656165 0.825475
vt 0.985421 0.461916
vt 0.985442 0.006826
vt 0.673907 0.463557
vt 0.993429 0.009041
vt 0.993395 0.459691
vt 0.339976 0.003994
vt 0.340162 0.826122
vt 0.336323 0.822317
vt 0.336133 0.003995
vt 0.343653 0.826120
vt 0.343544 0.003993
vt 0.663188 0.003983
vt 0.663027 0.822291
vt 0.731823 0.405822
vt 0.731028 0.406524
vt 0.731040 0.062208
vt 0.731832 0.062904
vt 0.989721 0.005022
vt 0.993729 0.008936
vt 0.987836 0.004895
vt 0.986331 0.005543
vt 0.985086 0.006605
vt 0.933352 0.058310
vt 0.929708 0.058326
vt 0.925893 0.062132
vt 0.925853 0.062568
vt 0.732340 0.062081
vt 0.670377 0.004908
vt 0.666206 0.008744
vt 0.663327 0.822395
vt 0.659322 0.826305
vt 0.657439 0.826429
vt 0.655960 0.825788
vt 0.654754 0.824761
vt 0.603019 0.773057
vt 0.599379 0.773039
vt 0.400003 0.769775
vt 0.400117 0.770281
vt 0.343688 0.826373
vt 0.730186 0.407206
vt 0.340123 0.826376
vt 0.335943 0.822535
vt 0.399816 0.003985
vt 0.400668 0.003985
vt 0.400793 0.769112
vt 0.925843 0.406168
vt 0.401106 0.769764
vt 0.731367 0.061541
vt 0.267298 0.768494
vt 0.266775 0.769312
vt 0.073258 0.769211
vt 0.073298 0.768775
vt 0.673943 0.463812
vt 0.730369 0.407704
vt 0.069470 0.772602
vt 0.069721 0.004003
vt 0.073547 0.004004
vt 0.065637 0.772588
vt 0.065895 0.004002
vt 0.009571 0.826094
vt 0.009740 0.003983
vt 0.011525 0.003984
vt 0.011303 0.826094
vt 0.267547 0.004067
vt 0.013688 0.824504
vt 0.012596 0.825461
vt 0.012728 0.003984
vt 0.013963 0.003984
vt 0.329055 0.004091
vt 0.332889 0.004092
vt 0.332512 0.822421
vt 0.328671 0.826225
vt 0.325179 0.826223
vt 0.325488 0.004089
vt 0.005722 0.822280
vt 0.005897 0.003983
vt 0.989686 0.463710
vt 0.993695 0.459795
vt 0.987803 0.463836
vt 0.986301 0.463188
vt 0.985066 0.462135
vt 0.933336 0.410426
vt 0.929697 0.410410
vt 0.925882 0.406604
vt 0.732332 0.406648
vt 0.670377 0.463812
vt 0.666205 0.459977
vt 0.009430 0.826300
vt 0.005423 0.822385
vt 0.011305 0.826427
vt 0.012807 0.825779
vt 0.014044 0.824724
vt 0.065791 0.773035
vt 0.069442 0.773019
vt 0.325144 0.826475
vt 0.268729 0.770371
vt 0.268842 0.769863
vt 0.328710 0.826479
vt 0.332891 0.822639
vt 0.268068 0.769204
vt 0.268340 0.004067
vt 0.269216 0.004067
vt 0.267738 0.769857
vt 0.731356 0.407187
s 0
usemtl Door_Std_Wood.005
f 49/1/1 4/2/1 41/3/1 55/4/1
f 42/5/2 54/6/2 52/7/2 26/8/2
f 74/9/3 78/10/3 22/11/3 18/12/3
f 85/13/4 29/14/4 30/15/4 86/16/4
f 2/17/5 4/2/5 5/18/5 8/19/5
f 6/20/6 2/17/6 8/19/6 7/21/6
f 15/22/7 13/23/7 9/24/7 16/25/7
f 4/2/6 49/1/6 45/26/6 5/18/6
s 1
f 85/13/8 83/27/9 27/28/9 29/14/8
s 0
f 80/29/10 81/30/10 25/31/10 24/32/10
s 1
f 12/33/11 10/34/11 11/35/12 14/36/13
f 14/36/13 11/35/12 9/24/14 13/23/14
f 83/27/9 84/37/15 28/38/15 27/28/9
s 0
f 80/29/5 24/32/5 28/38/5 84/37/5
f 12/33/5 6/20/5 7/21/5 10/34/5
f 74/9/4 18/12/4 26/8/4 82/39/4
f 19/40/16 75/41/16 86/16/16 30/15/16
f 17/42/17 31/43/17 32/44/17 21/45/17
f 3/46/7 31/43/7 17/42/7 1/47/7
f 15/22/18 16/25/18 20/48/18 33/49/18
f 107/50/19 109/51/19 53/52/19 51/53/19
f 35/54/20 34/55/20 19/40/20 30/15/20
f 36/56/21 35/54/21 30/15/21 29/14/21
f 37/57/22 36/56/22 29/14/22 27/28/22
f 38/58/23 37/57/23 27/28/23 28/38/23
f 39/59/24 38/58/24 28/38/24 24/32/24
f 40/60/25 39/59/25 24/32/25 25/31/25
f 41/61/26 40/60/26 25/31/26 23/62/26
f 55/63/27 41/61/27 23/62/27 51/53/27
f 43/64/21 42/5/21 26/8/21 18/12/21
f 44/65/28 43/64/28 18/12/28 22/11/28
f 15/22/29 33/49/29 34/66/29 35/67/29
f 13/23/30 15/22/30 35/67/30 36/68/30
f 14/36/31 13/23/31 36/68/31 37/69/31
f 12/33/32 14/36/32 37/69/32 38/70/32
f 6/20/33 12/33/33 38/70/33 39/71/33
f 2/17/34 6/20/34 39/71/34 40/72/34
f 4/2/35 2/17/35 40/72/35 41/3/35
f 3/46/36 48/73/36 54/74/36 42/75/36
f 82/39/37 26/8/37 52/7/37 108/76/37
f 31/43/30 3/46/30 42/75/30 43/77/30
f 32/44/38 31/43/38 43/77/38 44/78/38
f 48/73/39 46/79/39 47/80/39 50/81/39
f 50/81/40 47/80/40 45/26/40 49/1/40
f 109/51/41 108/76/41 52/7/41 53/52/41
f 107/50/42 51/53/42 23/62/42 79/82/42
f 54/74/43 48/73/43 50/81/43 56/83/43
f 56/83/44 50/81/44 49/1/44 55/4/44
f 55/63/45 51/53/45 53/52/45 56/84/45
f 56/84/46 53/52/46 52/7/46 54/6/46
f 48/73/47 3/46/47 1/47/47 46/79/47
f 105/85/48 111/86/48 97/87/48 60/88/48
f 98/89/49 82/39/49 108/76/49 110/90/49
f 58/91/5 64/92/5 61/93/5 60/88/5
f 62/94/7 63/95/7 64/92/7 58/91/7
f 71/96/6 72/97/6 65/98/6 69/99/6
f 60/88/7 61/93/7 101/100/7 105/85/7
s 1
f 68/101/50 70/102/51 67/103/52 66/104/50
f 70/102/51 69/99/53 65/98/53 67/103/52
s 0
f 68/101/5 66/104/5 63/95/5 62/94/5
f 73/105/54 77/106/54 88/107/54 87/108/54
f 59/109/6 57/110/6 73/105/6 87/108/6
f 71/96/55 89/111/55 76/112/55 72/97/55
f 91/113/56 86/16/56 75/41/56 90/114/56
f 92/115/57 85/13/57 86/16/57 91/113/57
f 93/116/58 83/27/58 85/13/58 92/115/58
f 94/117/59 84/37/59 83/27/59 93/116/59
f 95/118/60 80/29/60 84/37/60 94/117/60
f 96/119/61 81/30/61 80/29/61 95/118/61
f 97/120/62 79/82/62 81/30/62 96/119/62
f 111/121/63 107/50/63 79/82/63 97/120/63
f 99/122/64 74/9/64 82/39/64 98/89/64
f 100/123/65 78/10/65 74/9/65 99/122/65
f 71/96/66 91/124/66 90/125/66 89/111/66
f 69/99/67 92/126/67 91/124/67 71/96/67
f 70/102/68 93/127/68 92/126/68 69/99/68
f 68/101/69 94/128/69 93/127/69 70/102/69
f 62/94/70 95/129/70 94/128/70 68/101/70
f 58/91/71 96/130/71 95/129/71 62/94/71
f 60/88/72 97/87/72 96/130/72 58/91/72
f 59/109/73 98/131/73 110/132/73 104/133/73
f 87/108/67 99/134/67 98/131/67 59/109/67
f 88/107/74 100/135/74 99/134/74 87/108/74
f 104/133/75 106/136/75 103/137/75 102/138/75
f 106/136/76 105/85/76 101/100/76 103/137/76
f 110/132/77 112/139/77 106/136/77 104/133/77
f 112/139/78 111/86/78 105/85/78 106/136/78
f 111/121/79 112/140/79 109/51/79 107/50/79
f 112/140/80 110/90/80 108/76/80 109/51/80
f 104/133/81 102/138/81 57/110/81 59/109/81
f 79/82/5 23/62/5 25/31/5 81/30/5
