# Blender 4.4.0
# www.blender.org
mtllib Window_middle.mtl
o Window_middle
v 7.921801 2.850855 -1.009901
v 7.822858 2.860855 -1.028234
v 7.920744 3.150000 1.008333
v 7.921801 2.900000 1.100000
v 7.822858 2.900000 1.100000
v 7.921801 2.900000 1.009901
v 7.920564 1.240000 0.053167
v 7.824095 1.240000 0.034833
v 7.920564 2.860000 0.053167
v 7.824095 2.860000 0.034833
v 7.921801 2.859000 0.055000
v 7.921801 1.241000 0.055000
v 7.822858 2.859000 0.036667
v 7.822858 1.241000 0.036667
v 7.921801 3.150855 1.009901
v 7.822858 3.150855 1.009901
v 7.823915 2.860000 1.026667
v 7.822858 2.860855 1.028234
v 7.921801 2.850855 1.009901
v 7.920744 2.850000 1.008333
v 7.835226 2.860000 1.026667
v 7.835226 1.240000 1.026667
v 7.920744 1.250000 1.008333
v 7.823915 2.860000 -1.026667
v 7.920744 3.150000 -1.008333
v 7.920744 2.900000 -1.008333
v 7.921801 3.200000 -1.100000
v 7.835226 1.240000 0.053167
v 7.835226 2.859000 0.055000
v 7.835226 1.241000 0.055000
v 7.835226 2.860000 0.053167
v 7.822858 3.200000 -1.100000
v 7.920744 2.900000 1.008333
v 7.824095 3.150000 -1.008333
v 7.835226 2.850000 -1.008333
v 7.835226 1.240000 0.034833
v 7.835226 2.859000 0.036667
v 7.835226 1.241000 0.036667
v 7.835226 2.860000 0.034833
v 7.921801 1.200000 -1.100000
v 7.822858 1.200000 -1.100000
v 7.823915 1.240000 -1.026667
v 7.822858 1.239145 -1.028234
v 7.921801 1.249145 -1.009901
v 7.824095 3.150000 1.008333
v 7.822858 3.200000 1.100000
v 7.921801 1.249145 1.009901
v 7.822858 1.239145 1.028234
v 7.920564 1.240000 -0.053167
v 7.824095 1.240000 -0.034833
v 7.823915 1.240000 1.026667
v 7.920564 2.860000 -0.053167
v 7.824095 2.860000 -0.034833
v 7.822858 1.200000 1.100000
v 7.921801 1.200000 1.100000
v 7.921801 3.200000 1.100000
v 7.921801 2.859000 -0.055000
v 7.921801 1.241000 -0.055000
v 7.822858 2.859000 -0.036667
v 7.822858 1.241000 -0.036667
v 7.921801 2.900000 -1.009901
v 7.822858 2.900000 -1.009901
v 7.835226 1.250000 1.008333
v 7.822858 2.900000 -1.100000
v 7.921801 2.900000 -1.100000
v 7.822858 3.150855 -1.009901
v 7.920744 1.250000 -1.008333
v 7.835226 1.240000 -1.026667
v 7.921801 2.900000 1.100000
v 7.835226 2.860000 -1.026667
v 7.920744 2.850000 -1.008333
v 7.835226 2.850000 1.008333
v 7.822858 2.900000 1.009901
v 7.822858 2.900000 1.100000
v 7.824095 2.900000 1.008333
v 7.835226 1.250000 -1.008333
v 7.835226 1.240000 -0.053167
v 7.835226 2.859000 -0.055000
v 7.835226 1.241000 -0.055000
v 7.835226 2.860000 -0.053167
v 7.824095 2.900000 -1.008333
v 7.822858 2.900000 -1.100000
v 7.921801 3.150855 -1.009901
v 7.921801 2.900000 -1.100000
v 7.835226 1.240000 -0.034833
v 7.835226 2.859000 -0.036667
v 7.835226 1.241000 -0.036667
v 7.835226 2.860000 -0.034833
v 7.821801 2.900000 -0.036667
v 7.920744 2.900000 -0.036667
v 7.920744 2.900000 0.036667
v 7.821801 2.900000 0.036667
v 7.821801 3.150000 -0.036667
v 7.920744 3.150000 -0.036667
v 7.920744 3.150000 0.036667
v 7.821801 3.150000 0.036667
v 7.821801 2.900000 -0.559166
v 7.920744 2.900000 -0.559166
v 7.920744 2.900000 -0.485833
v 7.821801 2.900000 -0.485833
v 7.821801 3.150000 -0.559166
v 7.920744 3.150000 -0.559166
v 7.920744 3.150000 -0.485833
v 7.821801 3.150000 -0.485833
v 7.821801 2.900000 0.485833
v 7.920744 2.900000 0.485833
v 7.920744 2.900000 0.559166
v 7.821801 2.900000 0.559166
v 7.821801 3.150000 0.485833
v 7.920744 3.150000 0.485833
v 7.920744 3.150000 0.559166
v 7.821801 3.150000 0.559166
v 7.863852 2.893001 -1.048667
v 7.878693 2.893001 -1.048667
v 7.878693 2.893001 1.048667
v 7.863852 2.893001 1.048667
v 7.863852 3.157001 -1.048667
v 7.878693 3.157001 -1.048667
v 7.878693 3.157001 1.048667
v 7.863852 3.157001 1.048667
v 7.921800 1.200000 -1.100000
v 7.921801 1.200000 1.100000
v 7.921800 3.200000 -1.100000
v 7.921801 3.200000 1.100000
vn -0.0000 1.0000 -0.0000
vn 0.6288 -0.7776 -0.0000
vn -1.0000 -0.0000 -0.0000
vn 0.8290 -0.0000 -0.5593
vn -0.6287 -0.7776 -0.0000
vn 1.0000 0.0008 -0.0000
vn -0.0000 -0.8779 0.4789
vn -0.0000 -0.0000 1.0000
vn 0.6287 -0.7776 -0.0000
vn -0.0000 0.8779 0.4788
vn -0.6288 0.7776 -0.0000
vn 0.6288 0.7776 -0.0000
vn -0.0000 -1.0000 -0.0000
vn -0.6288 -0.7776 -0.0000
vn -0.0000 0.8779 0.4789
vn -0.8290 -0.0000 0.5593
vn -0.5686 -0.8226 -0.0000
vn -0.0000 -0.0000 -1.0000
vn 1.0000 -0.0000 -0.0000
vn -0.7850 -0.0000 0.6195
vn -0.7850 -0.0000 -0.6195
vn -0.8290 -0.0000 -0.5593
vn -0.0000 -0.8779 -0.4789
vn -0.0000 0.8779 -0.4789
vt 0.494208 0.164416
vt 0.494242 0.720362
vt 0.529188 0.720360
vt 0.529155 0.164414
vt 0.539417 0.158944
vt 0.539476 0.725846
vt 0.538865 0.725414
vt 0.538830 0.159359
vt 0.143627 0.925383
vt 0.123857 0.905600
vt 0.124142 0.086307
vt 0.143923 0.066540
vt 0.218393 0.086314
vt 0.218391 0.905608
vt 0.217780 0.905176
vt 0.217701 0.086803
vt 0.208028 0.091843
vt 0.208108 0.900125
vt 0.213160 0.905176
vt 0.213066 0.086804
vt 0.215295 0.121009
vt 0.198898 0.121009
vt 0.198909 0.120422
vt 0.215284 0.120421
vt 0.266733 0.605959
vt 0.241900 0.630793
vt 0.241900 0.479197
vt 0.266734 0.479198
vt 0.078021 0.900547
vt 0.078234 0.091392
vt 0.078844 0.091824
vt 0.078645 0.900106
vt 0.402589 0.884851
vt 0.402586 0.884264
vt 0.402596 0.220062
vt 0.427214 0.220063
vt 0.427204 0.884263
vt 0.427202 0.884850
vt 0.219369 0.120950
vt 0.219352 0.120311
vt 0.219429 0.785160
vt 0.215309 0.785101
vt 0.402599 0.219473
vt 0.427212 0.219476
vt 0.306886 0.605528
vt 0.267398 0.605528
vt 0.267398 0.479197
vt 0.306887 0.479198
vt 0.219411 0.785806
vt 0.215300 0.785694
vt 0.353317 0.784012
vt 0.353316 0.217112
vt 0.333533 0.197329
vt 0.333533 0.803796
vt 0.198863 0.785693
vt 0.198855 0.785100
vt 0.493632 0.164009
vt 0.493631 0.720794
vt 0.398525 0.222579
vt 0.363578 0.222581
vt 0.363606 0.778525
vt 0.398552 0.778523
vt 0.534243 0.725414
vt 0.534209 0.159359
vt 0.353929 0.783580
vt 0.353903 0.217527
vt 0.172553 0.900569
vt 0.147727 0.925399
vt 0.147656 0.066589
vt 0.172486 0.091415
vt 0.424003 0.803789
vt 0.399164 0.778955
vt 0.399101 0.222172
vt 0.423937 0.197330
vt 0.113775 0.091833
vt 0.113576 0.900115
vt 0.373664 0.219557
vt 0.373867 0.220058
vt 0.369763 0.220028
vt 0.369325 0.219599
vt 0.373858 0.884270
vt 0.373655 0.884771
vt 0.369327 0.884735
vt 0.369764 0.884302
vt 0.557524 0.475919
vt 0.556913 0.475487
vt 0.556957 0.349157
vt 0.557567 0.349157
vt 0.491918 0.500730
vt 0.516760 0.475905
vt 0.516804 0.349143
vt 0.491970 0.349134
vt 0.608105 0.730943
vt 0.632091 0.705277
vt 0.613248 0.148747
vt 0.587582 0.124762
vt 0.307497 0.605960
vt 0.332331 0.630794
vt 0.332331 0.479198
vt 0.307497 0.479198
vt 0.613837 0.149135
vt 0.653313 0.147796
vt 0.672163 0.703485
vt 0.632687 0.704825
vt 0.653906 0.147381
vt 0.672842 0.703895
vt 0.517425 0.475473
vt 0.517468 0.349143
vt 0.468793 0.745631
vt 0.468794 0.139170
vt 0.559199 0.139158
vt 0.559262 0.745628
vt 0.582350 0.500761
vt 0.582401 0.349165
vt 0.677887 0.121711
vt 0.698512 0.727875
vt 0.053187 0.925369
vt 0.053412 0.066557
vt 0.173097 0.091847
vt 0.173177 0.900128
vt 0.118815 0.086795
vt 0.118627 0.905167
vt 0.123247 0.905168
vt 0.123450 0.086796
vt 0.456146 0.219559
vt 0.460473 0.219603
vt 0.460036 0.220031
vt 0.455942 0.220060
vt 0.455933 0.884267
vt 0.460037 0.884296
vt 0.460475 0.884725
vt 0.456137 0.884768
vt 0.194743 0.785806
vt 0.194725 0.785159
vt 0.358551 0.783580
vt 0.358524 0.217527
vt 0.238167 0.925385
vt 0.238167 0.066540
vt 0.194850 0.120312
vt 0.194833 0.120950
vt 0.282325 0.475465
vt 0.241900 0.475465
vt 0.241900 0.349135
vt 0.282325 0.349135
vt 0.363176 0.475465
vt 0.342963 0.475465
vt 0.342963 0.349135
vt 0.363176 0.349134
vt 0.302538 0.475465
vt 0.302538 0.349135
vt 0.488185 0.605527
vt 0.467972 0.605527
vt 0.467972 0.479197
vt 0.488185 0.479197
vt 0.407334 0.605527
vt 0.366909 0.605527
vt 0.366909 0.479197
vt 0.407334 0.479197
vt 0.427547 0.605527
vt 0.427547 0.479197
vt 0.488185 0.475463
vt 0.467973 0.475464
vt 0.467972 0.349134
vt 0.488185 0.349134
vt 0.407335 0.475464
vt 0.366909 0.475465
vt 0.366909 0.349135
vt 0.407334 0.349134
vt 0.427547 0.475464
vt 0.427547 0.349134
vt -0.040422 0.034230
vt 0.523761 0.197856
vt 0.550611 0.197856
vt 0.550611 0.600615
vt 0.523761 0.600615
vt 0.000000 0.000000
vt 1.000000 0.000000
vt 1.000000 1.000000
vt 0.000000 1.000000
s 0
usemtl Door_Std_Wood
f 23/1/1 67/2/1 76/3/1 63/4/1
f 48/5/2 43/6/2 42/7/2 51/8/2
f 5/9/3 18/10/3 48/11/3 54/12/3
f 43/13/4 2/14/4 24/15/4 42/16/4
f 76/17/3 35/18/3 70/19/3 68/20/3
f 14/21/5 60/22/5 50/23/5 8/24/5
f 66/25/3 32/26/3 82/27/3 62/28/3
f 19/29/4 47/30/4 23/31/4 20/32/4
f 9/33/6 11/34/6 12/35/6 58/36/6 57/37/6 52/38/6
f 38/39/7 14/21/7 8/24/7 36/40/7
f 37/41/8 13/42/8 14/21/8 38/39/8
f 12/35/9 7/43/9 49/44/9 58/36/9
f 25/45/8 34/46/8 81/47/8 26/48/8
f 39/49/10 10/50/10 13/42/10 37/41/10
f 2/51/3 18/52/3 5/53/3 64/54/3
f 53/55/11 59/56/11 13/42/11 10/50/11
f 68/20/8 70/19/8 24/15/8 42/16/8
f 47/57/12 44/58/12 67/2/12 23/1/12
f 20/59/13 72/60/13 35/61/13 71/62/13
f 63/4/3 76/3/3 68/63/3 22/64/3
f 18/52/14 2/51/14 24/65/14 17/66/14
f 1/67/3 65/68/3 40/69/3 44/70/3
f 65/71/3 1/72/3 19/73/3 4/74/3
f 63/75/8 23/31/8 20/32/8 72/76/8
f 28/77/3 30/78/3 38/79/3 36/80/3
f 29/81/3 31/82/3 39/83/3 37/84/3
f 30/78/3 29/81/3 37/84/3 38/79/3
f 12/35/7 30/78/7 28/77/7 7/43/7
f 9/33/15 31/82/15 29/81/15 11/34/15
f 11/34/8 29/81/8 30/78/8 12/35/8
f 15/85/16 3/86/16 33/87/16 6/88/16
f 46/89/3 16/90/3 73/91/3 74/92/3
f 27/93/3 83/94/3 15/95/3 56/96/3
f 83/97/3 27/98/3 84/99/3 61/100/3
f 3/101/13 45/102/13 34/103/13 25/104/13
f 16/105/17 66/106/17 34/103/17 45/102/17
f 22/64/1 68/63/1 42/7/1 51/8/1
f 45/107/18 3/86/18 33/87/18 75/108/18
f 40/109/19 44/58/19 47/57/19 55/110/19
f 43/6/19 48/5/19 54/111/19 41/112/19
f 34/46/20 66/25/20 62/28/20 81/47/20
f 16/90/21 45/107/21 75/108/21 73/91/21
f 56/113/3 15/85/3 6/88/3 69/114/3
f 15/95/11 83/94/11 25/104/11 3/101/11
f 66/106/3 16/105/3 46/115/3 32/116/3
f 19/29/19 4/117/19 55/118/19 47/30/19
f 1/67/22 44/70/22 67/119/22 71/120/22
f 22/121/8 21/122/8 17/123/8 51/124/8
f 77/125/3 85/126/3 87/127/3 79/128/3
f 78/129/3 86/130/3 88/131/3 80/132/3
f 79/128/3 87/127/3 86/130/3 78/129/3
f 58/36/23 49/44/23 77/125/23 79/128/23
f 52/38/24 57/37/24 78/129/24 80/132/24
f 57/37/18 58/36/18 79/128/18 78/129/18
f 88/133/24 86/134/24 59/56/24 53/55/24
f 70/135/1 24/65/1 17/66/1 21/136/1
f 25/45/22 83/97/22 61/100/22 26/48/22
f 64/137/19 2/14/19 43/13/19 41/138/19
f 35/61/3 72/60/3 21/136/3 70/135/3
f 59/56/3 60/22/3 14/21/3 13/42/3
f 76/17/8 67/119/8 71/120/8 35/18/8
f 85/139/23 50/23/23 60/22/23 87/140/23
f 63/75/19 72/76/19 21/122/19 22/121/19
f 86/134/18 87/140/18 60/22/18 59/56/18
f 48/11/22 18/10/22 17/123/22 51/124/22
f 19/73/11 1/72/11 71/62/11 20/59/11
f 93/141/18 94/142/18 90/143/18 89/144/18
f 94/145/19 95/146/19 91/147/19 90/148/19
f 95/146/8 96/149/8 92/150/8 91/147/8
f 96/149/3 93/141/3 89/144/3 92/150/3
f 102/151/19 103/152/19 99/153/19 98/154/19
f 101/155/18 102/156/18 98/157/18 97/158/18
f 103/152/8 104/159/8 100/160/8 99/153/8
f 104/159/3 101/155/3 97/158/3 100/160/3
f 110/161/19 111/162/19 107/163/19 106/164/19
f 109/165/18 110/166/18 106/167/18 105/168/18
f 111/162/8 112/169/8 108/170/8 107/163/8
f 112/169/3 109/165/3 105/168/3 108/170/3
f 4/172/13 5/173/13 64/174/13 65/175/13
usemtl Glass_Window
f 118/171/19 119/171/19 115/171/19 114/171/19
f 120/171/3 117/171/3 113/171/3 116/171/3
usemtl dark-night
f 121/176/3 122/177/3 124/178/3 123/179/3
