# Blender 4.4.0
# www.blender.org
mtllib room2.mtl
o room2
v -7.100004 0.000000 5.000000
v -7.100004 0.100000 5.000000
v -7.100004 0.000000 -5.000000
v -7.100004 0.100000 -5.000000
v 7.100004 0.000000 5.000000
v 7.100004 0.100000 5.000000
v 7.100004 0.000000 -5.000000
v 7.100004 0.100000 -5.000000
v 7.100003 -0.000001 -5.100001
v 7.100003 5.499997 -5.100001
v 7.100003 -0.000001 -5.000001
v 7.100003 5.499997 -5.000001
v -7.100012 -0.000001 -5.099999
v -7.100012 5.499997 -5.099999
v -7.100012 -0.000001 -5.000000
v -7.100012 5.499997 -5.000000
v -7.000003 0.000000 5.000000
v -7.000003 5.499999 5.000000
v -7.100003 0.000000 5.000000
v -7.100003 5.499999 5.000000
v -7.000004 0.000000 -4.999999
v -7.000004 5.499999 -4.999999
v -7.100004 0.000000 -4.999999
v -7.100004 5.499999 -4.999999
v 7.100004 -0.000001 5.000002
v 7.100004 5.499997 5.000002
v 7.000004 -0.000001 5.000002
v 7.000004 5.499997 5.000002
v 7.100003 -0.000001 -4.999999
v 7.100003 5.499997 -4.999999
v 7.000003 -0.000001 -4.999999
v 7.000003 5.499997 -4.999999
v 7.100003 -0.000001 5.000002
v 7.100003 5.499997 5.000002
v 7.100003 -0.000001 5.100002
v 7.100003 5.499997 5.100002
v -7.100012 -0.000001 5.000002
v -7.100012 5.499997 5.000002
v -7.100012 -0.000001 5.100002
v -7.100012 5.499997 5.100002
v 7.000004 2.758054 0.700246
v 7.100004 2.758054 0.700246
v 7.100004 2.758054 -0.699753
v 7.000003 2.758054 -0.699754
v 7.000003 0.098054 -0.699754
v 7.100004 0.098054 -0.699753
v 7.100004 2.261521 0.700247
v 7.000004 0.098054 0.700246
v 7.100004 0.098054 0.700246
v 7.000004 5.499997 5.100002
v 7.000003 5.499997 -5.100001
v 7.100003 5.499997 -5.000001
v -7.100012 5.499997 -5.000000
v -7.000004 5.499999 -5.099999
v -7.000003 5.499999 5.100002
v -6.999992 5.499997 5.000002
v -6.999992 5.499996 -4.999997
v 7.000004 5.499997 5.000002
v 7.000004 5.499996 -4.999997
vn -1.0000 -0.0000 -0.0000
vn -0.0000 -0.0000 -1.0000
vn 1.0000 -0.0000 -0.0000
vn -0.0000 -0.0000 1.0000
vn -0.0000 -1.0000 -0.0000
vn -0.0000 1.0000 -0.0000
vt 0.375000 0.000000
vt 0.625000 0.000000
vt 0.625000 0.250000
vt 0.375000 0.250000
vt 0.625000 0.500000
vt 0.375000 0.500000
vt 0.625000 0.750000
vt 0.375000 0.750000
vt 0.625000 1.000000
vt 0.375000 1.000000
vt 0.125000 0.500000
vt 0.125000 0.750000
vt 0.875000 0.500000
vt 0.875000 0.750000
vt 0.500366 0.357494
vt 0.379457 0.357494
vt 0.379457 0.392494
vt 0.500366 0.857506
vt 0.379457 0.857506
vt 0.379457 0.892506
vt 0.477796 0.892506
vt 0.405000 0.750000
vt 0.421667 0.750000
vt 0.421667 0.500000
vt 0.405000 0.500000
vt 0.500366 0.392494
vt 0.421667 0.250000
vt 0.405000 0.250000
vt 0.421667 0.203333
vt 0.421667 0.000000
vt 0.405000 0.000000
vt 0.405000 1.000000
vt 0.421667 1.000000
vt 0.500366 0.892506
s 0
usemtl MainFloor_Mat
f 1/1/1 2/2/1 4/3/1 3/4/1
f 3/4/2 4/3/2 8/5/2 7/6/2
f 7/6/3 8/5/3 6/7/3 5/8/3
f 5/8/4 6/7/4 2/9/4 1/10/4
f 3/11/5 7/6/5 5/8/5 1/12/5
f 8/5/6 4/13/6 2/14/6 6/7/6
usemtl LeftWall_Mat.002
f 9/1/3 10/2/3 12/3/3 11/4/3
f 11/4/4 12/3/4 16/5/4 15/6/4
f 15/6/1 16/5/1 14/7/1 13/8/1
f 13/8/2 14/7/2 10/9/2 9/10/2
f 11/11/5 15/6/5 13/8/5 9/12/5
f 16/5/6 12/13/6 10/14/6 14/7/6
f 45/22/4 46/23/4 43/24/4 44/25/4
f 44/25/5 43/24/5 42/27/5 41/28/5
f 41/28/2 42/27/2 47/29/2 49/30/2 48/31/2
f 48/32/6 49/33/6 46/23/6 45/22/6
f 12/3/6 16/5/6 53/5/6 52/3/6
usemtl LeftWall_Mat
f 17/1/4 18/2/4 20/3/4 19/4/4
f 19/4/1 20/3/1 24/5/1 23/6/1
f 23/6/2 24/5/2 22/7/2 21/8/2
f 21/8/3 22/7/3 18/9/3 17/10/3
f 19/11/5 23/6/5 21/8/5 17/12/5
f 24/5/6 20/13/6 18/14/6 22/7/6
usemtl RightWall_Mat
f 25/1/4 26/2/4 28/3/4 27/4/4
f 27/4/1 28/3/1 41/15/1 48/16/1 45/17/1 31/6/1
f 31/6/2 32/5/2 30/7/2 29/8/2
f 29/8/3 30/7/3 43/18/3 46/19/3 49/20/3 47/21/3 25/10/3
f 27/11/5 31/6/5 29/8/5 25/12/5
f 32/5/6 28/13/6 26/14/6 30/7/6
f 31/6/1 45/17/1 44/26/1 41/15/1 28/3/1 32/5/1
f 25/10/3 47/21/3 42/34/3 43/18/3 30/7/3 26/9/3
usemtl LeftWall_Mat.001
f 33/1/3 34/2/3 36/3/3 35/4/3
f 35/4/4 36/3/4 40/5/4 39/6/4
f 39/6/1 40/5/1 38/7/1 37/8/1
f 37/8/2 38/7/2 34/9/2 33/10/2
f 35/11/5 39/6/5 37/8/5 33/12/5
f 40/5/6 36/13/6 34/14/6 38/7/6
s 1
usemtl Material.013
f 59/5/6 57/13/6 56/14/6 58/7/6
l 28 50
l 32 51
l 54 22
l 18 55
